<svg width="21" height="20" viewBox="0 0 21 20" fill="none" xmlns="http://www.w3.org/2000/svg">
<path d="M17.6079 9H3.60791M17.6079 9C18.7125 9 19.6079 9.89543 19.6079 11V17C19.6079 18.1046 18.7125 19 17.6079 19H3.60791C2.50334 19 1.60791 18.1046 1.60791 17V11C1.60791 9.89543 2.50334 9 3.60791 9M17.6079 9V7C17.6079 5.89543 16.7125 5 15.6079 5M3.60791 9V7C3.60791 5.89543 4.50334 5 5.60791 5M5.60791 5V3C5.60791 1.89543 6.50334 1 7.60791 1H13.6079C14.7125 1 15.6079 1.89543 15.6079 3V5M5.60791 5H15.6079" stroke="#009688" stroke-width="2" stroke-linecap="round" stroke-linejoin="round"/>
</svg>
