<svg width="20" height="16" viewBox="0 0 20 16" fill="none" xmlns="http://www.w3.org/2000/svg">
<path d="M14.9997 13.8333H4.99967C4.33663 13.8333 3.70075 13.5699 3.23191 13.1011C2.76307 12.6323 2.49967 11.9964 2.49967 11.3333V4.66667C2.49967 4.44565 2.41188 4.23369 2.2556 4.07741C2.09932 3.92113 1.88735 3.83333 1.66634 3.83333C1.44533 3.83333 1.23337 3.92113 1.07709 4.07741C0.920805 4.23369 0.833008 4.44565 0.833008 4.66667V11.3333C0.833008 12.4384 1.27199 13.4982 2.0534 14.2796C2.44031 14.6665 2.89964 14.9734 3.40516 15.1828C3.91068 15.3922 4.4525 15.5 4.99967 15.5H14.9997C15.2207 15.5 15.4326 15.4122 15.5889 15.2559C15.7452 15.0996 15.833 14.8877 15.833 14.6667C15.833 14.4457 15.7452 14.2337 15.5889 14.0774C15.4326 13.9211 15.2207 13.8333 14.9997 13.8333ZM19.1663 6.28333C19.1577 6.20678 19.1409 6.13136 19.1163 6.05833V5.98333C19.0763 5.89765 19.0228 5.81889 18.958 5.75L13.958 0.75C13.8891 0.68518 13.8104 0.631734 13.7247 0.591667H13.6497L13.383 0.5H6.66634C6.0033 0.5 5.36741 0.763392 4.89857 1.23223C4.42973 1.70107 4.16634 2.33696 4.16634 3V9.66667C4.16634 10.3297 4.42973 10.9656 4.89857 11.4344C5.36741 11.9033 6.0033 12.1667 6.66634 12.1667H16.6663C17.3294 12.1667 17.9653 11.9033 18.4341 11.4344C18.9029 10.9656 19.1663 10.3297 19.1663 9.66667V6.33333C19.1663 6.33333 19.1663 6.33333 19.1663 6.28333ZM14.1663 3.34167L16.3247 5.5H14.9997C14.7787 5.5 14.5667 5.4122 14.4104 5.25592C14.2541 5.09964 14.1663 4.88768 14.1663 4.66667V3.34167ZM17.4997 9.66667C17.4997 9.88768 17.4119 10.0996 17.2556 10.2559C17.0993 10.4122 16.8874 10.5 16.6663 10.5H6.66634C6.44533 10.5 6.23337 10.4122 6.07709 10.2559C5.9208 10.0996 5.83301 9.88768 5.83301 9.66667V3C5.83301 2.77899 5.9208 2.56702 6.07709 2.41074C6.23337 2.25446 6.44533 2.16667 6.66634 2.16667H12.4997V4.66667C12.4997 5.32971 12.7631 5.96559 13.2319 6.43443C13.7007 6.90327 14.3366 7.16667 14.9997 7.16667H17.4997V9.66667Z" fill="#BBC3CF"/>
</svg>
