<svg width="20" height="21" viewBox="0 0 20 21" fill="none" xmlns="http://www.w3.org/2000/svg">
<path d="M18.2677 1.73223L18.9748 1.02513V1.02513L18.2677 1.73223ZM4.5 19.0355V20.0355C4.76522 20.0355 5.01957 19.9301 5.20711 19.7426L4.5 19.0355ZM1 19.0355H0C0 19.5878 0.447715 20.0355 1 20.0355L1 19.0355ZM1 15.4644L0.292893 14.7573C0.105357 14.9448 0 15.1992 0 15.4644H1ZM15.4393 2.43934C16.0251 1.85355 16.9748 1.85355 17.5606 2.43934L18.9748 1.02513C17.608 -0.341709 15.3919 -0.341709 14.0251 1.02513L15.4393 2.43934ZM17.5606 2.43934C18.1464 3.02513 18.1464 3.97487 17.5606 4.56066L18.9748 5.97487C20.3417 4.60804 20.3417 2.39196 18.9748 1.02513L17.5606 2.43934ZM17.5606 4.56066L3.79289 18.3284L5.20711 19.7426L18.9748 5.97487L17.5606 4.56066ZM4.5 18.0355H1V20.0355H4.5V18.0355ZM14.0251 1.02513L0.292893 14.7573L1.70711 16.1715L15.4393 2.43934L14.0251 1.02513ZM0 15.4644V19.0355H2V15.4644H0ZM12.5251 3.93934L16.0606 7.47487L17.4748 6.06066L13.9393 2.52513L12.5251 3.93934Z" fill="#111827"/>
</svg>
