<svg width="20" height="21" viewBox="0 0 20 21" fill="none" xmlns="http://www.w3.org/2000/svg">
<path d="M18.2677 2.23223L18.9748 1.52513V1.52513L18.2677 2.23223ZM4.5 19.5355V20.5355C4.76522 20.5355 5.01957 20.4301 5.20711 20.2426L4.5 19.5355ZM1 19.5355H0C0 20.0878 0.447715 20.5355 1 20.5355L1 19.5355ZM1 15.9644L0.292893 15.2573C0.105357 15.4448 0 15.6992 0 15.9644H1ZM15.4393 2.93934C16.0251 2.35355 16.9748 2.35355 17.5606 2.93934L18.9748 1.52513C17.608 0.158291 15.3919 0.158291 14.0251 1.52513L15.4393 2.93934ZM17.5606 2.93934C18.1464 3.52513 18.1464 4.47487 17.5606 5.06066L18.9748 6.47487C20.3417 5.10804 20.3417 2.89196 18.9748 1.52513L17.5606 2.93934ZM17.5606 5.06066L3.79289 18.8284L5.20711 20.2426L18.9748 6.47487L17.5606 5.06066ZM4.5 18.5355H1V20.5355H4.5V18.5355ZM14.0251 1.52513L0.292893 15.2573L1.70711 16.6715L15.4393 2.93934L14.0251 1.52513ZM0 15.9644V19.5355H2V15.9644H0ZM12.5251 4.43934L16.0606 7.97487L17.4748 6.56066L13.9393 3.02513L12.5251 4.43934Z" fill="#009688"/>
</svg>
