<svg width="18" height="20" viewBox="0 0 18 20" fill="none" xmlns="http://www.w3.org/2000/svg">
<path d="M17.21 6.82003L11 0.780025C10.474 0.279878 9.77586 0.000976562 9.05 0.000976562C8.32415 0.000976562 7.62604 0.279878 7.1 0.780025L0.89 6.78003C0.614081 7.02089 0.392165 7.31733 0.23879 7.64993C0.0854142 7.98253 0.00404064 8.34379 0 8.71003V17.29C0.0105405 18.0176 0.309044 18.7114 0.830118 19.2194C1.35119 19.7273 2.05235 20.008 2.78 20H15.22C15.9476 20.008 16.6488 19.7273 17.1699 19.2194C17.691 18.7114 17.9895 18.0176 18 17.29V8.71003C17.9992 8.3585 17.929 8.01058 17.7935 7.68625C17.6579 7.36191 17.4596 7.06754 17.21 6.82003ZM8.44 2.22003C8.59298 2.08019 8.79274 2.00264 9 2.00264C9.20726 2.00264 9.40702 2.08019 9.56 2.22003L15 7.50003L9.53 12.78C9.37702 12.9199 9.17726 12.9974 8.97 12.9974C8.76274 12.9974 8.56298 12.9199 8.41 12.78L3 7.50003L8.44 2.22003ZM16 17.29C15.9871 17.4863 15.8987 17.67 15.7532 17.8024C15.6078 17.9348 15.4166 18.0056 15.22 18H2.78C2.58338 18.0056 2.39225 17.9348 2.24678 17.8024C2.10132 17.67 2.01286 17.4863 2 17.29V9.35003L6.05 13.25L4.39 14.85C4.20375 15.0374 4.09921 15.2908 4.09921 15.555C4.09921 15.8192 4.20375 16.0727 4.39 16.26C4.48295 16.3575 4.59463 16.4352 4.71836 16.4885C4.84208 16.5418 4.9753 16.5695 5.11 16.57C5.36747 16.569 5.61462 16.4687 5.8 16.29L7.57 14.59C8.00961 14.8587 8.51481 15.0008 9.03 15.0008C9.54519 15.0008 10.0504 14.8587 10.49 14.59L12.26 16.29C12.4454 16.4687 12.6925 16.569 12.95 16.57C13.0847 16.5695 13.2179 16.5418 13.3416 16.4885C13.4654 16.4352 13.5771 16.3575 13.67 16.26C13.8563 16.0727 13.9608 15.8192 13.9608 15.555C13.9608 15.2908 13.8563 15.0374 13.67 14.85L12 13.25L16 9.35003V17.29Z" fill="#009688"/>
</svg>
