<svg width="28" height="28" viewBox="0 0 28 28" fill="none" xmlns="http://www.w3.org/2000/svg">
<path d="M13.9924 0.666504C11.3553 0.666504 8.77745 1.44849 6.58479 2.91358C4.39214 4.37866 2.68317 6.46104 1.674 8.89739C0.664835 11.3337 0.40079 14.0146 0.91526 16.601C1.42973 19.1875 2.69961 21.5632 4.56431 23.4279C6.42901 25.2926 8.80478 26.5625 11.3912 27.077C13.9776 27.5914 16.6585 27.3274 19.0948 26.3182C21.5312 25.3091 23.6136 23.6001 25.0787 21.4074C26.5437 19.2148 27.3257 16.6369 27.3257 13.9998C27.3259 12.2488 26.9811 10.515 26.3111 8.89722C25.6411 7.27948 24.659 5.80957 23.4208 4.57142C22.1827 3.33328 20.7128 2.35116 19.095 1.68115C17.4773 1.01114 15.7434 0.666359 13.9924 0.666504ZM18.2317 20.8698C18.1818 20.9942 18.1059 21.1066 18.009 21.1993C17.9122 21.292 17.7966 21.3629 17.6701 21.4073C17.5436 21.4516 17.409 21.4685 17.2755 21.4566C17.1419 21.4447 17.0125 21.4045 16.8957 21.3385L13.2762 18.526L10.9531 20.6692C10.8992 20.709 10.8361 20.7346 10.7697 20.7437C10.7033 20.7528 10.6357 20.745 10.5731 20.7211L11.0184 16.7365L11.0327 16.7478L11.0418 16.6691C11.0418 16.6691 17.5551 10.7391 17.8205 10.4864C18.0891 10.2344 18.0005 10.1798 18.0005 10.1798C18.0157 9.87241 17.5184 10.1798 17.5184 10.1798L8.8884 15.7318L5.29441 14.5078C5.29441 14.5078 4.74241 14.3098 4.69041 13.8745C4.63574 13.4425 5.3124 13.2078 5.3124 13.2078L19.6017 7.53116C19.6017 7.53116 20.7764 7.0078 20.7764 7.8745L18.2317 20.8698Z" fill="#E6F5F3"/>
</svg>
