<svg width="28" height="22" viewBox="0 0 28 22" fill="none" xmlns="http://www.w3.org/2000/svg">
<path d="M27.3333 2.73312C26.3311 3.16792 25.2712 3.45534 24.1866 3.58646C25.3309 2.90289 26.1883 1.8275 26.6 0.559791C25.5247 1.19988 24.3476 1.65085 23.12 1.89312C22.2994 1.00322 21.2066 0.410853 20.013 0.208926C18.8195 0.00699997 17.5927 0.206936 16.525 0.777377C15.4573 1.34782 14.6092 2.2565 14.1136 3.36091C13.618 4.46531 13.503 5.70298 13.7866 6.87979C11.6125 6.76983 9.48588 6.20373 7.54483 5.21827C5.60378 4.23282 3.89175 2.85005 2.51996 1.15979C2.03881 2.00002 1.78598 2.95155 1.78663 3.91979C1.78492 4.81897 2.00558 5.70461 2.42897 6.49788C2.85235 7.29114 3.46532 7.9674 4.21329 8.46646C3.34393 8.4428 2.49314 8.20952 1.73329 7.78646V7.85312C1.73981 9.11298 2.18128 10.3319 2.98305 11.3037C3.78481 12.2756 4.89763 12.9406 6.13329 13.1865C5.65763 13.3312 5.16379 13.4075 4.66663 13.4131C4.32248 13.4091 3.97919 13.3779 3.63996 13.3198C3.99184 14.4035 4.67279 15.3507 5.58806 16.0293C6.50333 16.708 7.60739 17.0845 8.74663 17.1065C6.8229 18.6201 4.4478 19.4463 1.99996 19.4531C1.55427 19.4546 1.10894 19.4279 0.666626 19.3731C3.16586 20.9868 6.07838 21.8434 9.05329 21.8398C11.1062 21.8611 13.1428 21.4731 15.0441 20.6986C16.9454 19.924 18.6733 18.7783 20.1269 17.3285C21.5805 15.8786 22.7306 14.1536 23.51 12.2543C24.2895 10.355 24.6827 8.31943 24.6666 6.26646C24.6666 6.03979 24.6666 5.79979 24.6666 5.55979C25.7129 4.77954 26.6153 3.82302 27.3333 2.73312Z" fill="#E6F5F3"/>
</svg>
