<svg width="28" height="28" viewBox="0 0 28 28" fill="none" xmlns="http://www.w3.org/2000/svg">
<path d="M25.2934 0.66669H2.7067C2.45281 0.663164 2.20071 0.709687 1.96479 0.803602C1.72888 0.897517 1.51378 1.03698 1.33177 1.21404C1.14976 1.39109 1.00441 1.60227 0.904027 1.8355C0.803641 2.06874 0.750182 2.31946 0.746704 2.57336V25.4267C0.750182 25.6806 0.803641 25.9313 0.904027 26.1645C1.00441 26.3978 1.14976 26.6089 1.33177 26.786C1.51378 26.9631 1.72888 27.1025 1.96479 27.1964C2.20071 27.2904 2.45281 27.3369 2.7067 27.3334H25.2934C25.5473 27.3369 25.7994 27.2904 26.0353 27.1964C26.2712 27.1025 26.4863 26.9631 26.6683 26.786C26.8503 26.6089 26.9957 26.3978 27.0961 26.1645C27.1964 25.9313 27.2499 25.6806 27.2534 25.4267V2.57336C27.2499 2.31946 27.1964 2.06874 27.0961 1.8355C26.9957 1.60227 26.8503 1.39109 26.6683 1.21404C26.4863 1.03698 26.2712 0.897517 26.0353 0.803602C25.7994 0.709687 25.5473 0.663164 25.2934 0.66669ZM8.78671 22.9867H4.7867V10.9867H8.78671V22.9867ZM6.7867 9.30669C6.23505 9.30669 5.706 9.08755 5.31592 8.69747C4.92585 8.3074 4.7067 7.77834 4.7067 7.22669C4.7067 6.67504 4.92585 6.14598 5.31592 5.75591C5.706 5.36583 6.23505 5.14669 6.7867 5.14669C7.07963 5.11347 7.37627 5.1425 7.6572 5.23187C7.93814 5.32124 8.19702 5.46894 8.41691 5.66531C8.6368 5.86167 8.81274 6.10226 8.9332 6.37133C9.05366 6.6404 9.11593 6.93188 9.11593 7.22669C9.11593 7.52149 9.05366 7.81298 8.9332 8.08205C8.81274 8.35112 8.6368 8.59171 8.41691 8.78807C8.19702 8.98444 7.93814 9.13214 7.6572 9.22151C7.37627 9.31088 7.07963 9.33991 6.7867 9.30669ZM23.2134 22.9867H19.2134V16.5467C19.2134 14.9334 18.64 13.88 17.1867 13.88C16.7369 13.8833 16.299 14.0244 15.9318 14.2843C15.5647 14.5441 15.286 14.9103 15.1334 15.3334C15.029 15.6467 14.9838 15.9768 15 16.3067V22.9734H11C11 22.9734 11 12.0667 11 10.9734H15V12.6667C15.3634 12.0362 15.8919 11.5167 16.5286 11.1643C17.1653 10.8119 17.8861 10.6398 18.6134 10.6667C21.28 10.6667 23.2134 12.3867 23.2134 16.08V22.9867Z" fill="#E6F5F3"/>
</svg>
