<svg width="17" height="17" viewBox="0 0 17 17" fill="none" xmlns="http://www.w3.org/2000/svg">
<path d="M8.33336 0.206055C6.35459 0.206137 4.44041 0.910316 2.93333 2.19259C1.42625 3.47487 0.424607 5.25157 0.107634 7.20479C-0.209339 9.15801 0.179038 11.1603 1.20327 12.8533C2.22751 14.5464 3.82076 15.8198 5.69796 16.4456C6.11462 16.5186 6.27087 16.2686 6.27087 16.0498C6.27087 15.8519 6.26045 15.1956 6.26045 14.4977C4.16669 14.8831 3.62502 13.9873 3.45836 13.5186C3.27342 13.0627 2.98025 12.6587 2.60419 12.3415C2.31252 12.1852 1.89586 11.7998 2.59376 11.7894C2.86025 11.8183 3.11585 11.9111 3.33888 12.0597C3.56192 12.2084 3.74583 12.4087 3.87502 12.6435C3.989 12.8483 4.14226 13.0285 4.32601 13.174C4.50977 13.3194 4.72042 13.4271 4.94588 13.491C5.17135 13.5548 5.4072 13.5736 5.63992 13.5461C5.87264 13.5187 6.09766 13.4456 6.30209 13.331C6.33817 12.9074 6.52697 12.5113 6.83336 12.2165C4.97919 12.0082 3.04169 11.2894 3.04169 8.10191C3.02998 7.2737 3.33559 6.47239 3.89586 5.86233C3.64109 5.14251 3.6709 4.35257 3.97919 3.654C3.97919 3.654 4.67708 3.43524 6.27086 4.50816C7.63443 4.13314 9.07395 4.13314 10.4375 4.50816C12.0313 3.42483 12.7292 3.654 12.7292 3.654C13.0375 4.35256 13.0673 5.14252 12.8125 5.86233C13.3745 6.47135 13.6804 7.27336 13.6667 8.10191C13.6667 11.2998 11.7188 12.0082 9.86461 12.2165C10.0635 12.4181 10.2166 12.6601 10.3137 12.9261C10.4108 13.1921 10.4494 13.4759 10.4271 13.7582C10.4271 14.8728 10.4167 15.7686 10.4167 16.0498C10.4167 16.2686 10.5729 16.529 10.9896 16.4457C12.8635 15.8147 14.4522 14.5384 15.472 12.8444C16.4919 11.1505 16.8766 9.14925 16.5574 7.19792C16.2383 5.24659 15.236 3.4722 13.7296 2.19148C12.2232 0.910763 10.3106 0.207084 8.33336 0.206055Z" fill="#808080"/>
</svg>
