<?xml version="1.0" encoding="UTF-8" standalone="no"?>
<!-- Generated by IcoMoon.io -->

<svg
   xmlns:dc="http://purl.org/dc/elements/1.1/"
   xmlns:cc="http://creativecommons.org/ns#"
   xmlns:rdf="http://www.w3.org/1999/02/22-rdf-syntax-ns#"
   xmlns:svg="http://www.w3.org/2000/svg"
   xmlns="http://www.w3.org/2000/svg"
   xmlns:sodipodi="http://sodipodi.sourceforge.net/DTD/sodipodi-0.dtd"
   xmlns:inkscape="http://www.inkscape.org/namespaces/inkscape"
   version="1.1"
   width="1257.8386"
   height="233.40742"
   viewBox="0 0 1257.8386 233.40742"
   id="svg7"
   sodipodi:docname="logo.svg"
   inkscape:version="0.92.3 (2405546, 2018-03-11)">
  <metadata
     id="metadata13">
    <rdf:RDF>
      <cc:Work
         rdf:about="">
        <dc:format>image/svg+xml</dc:format>
        <dc:type
           rdf:resource="http://purl.org/dc/dcmitype/StillImage" />
        <dc:title />
      </cc:Work>
    </rdf:RDF>
  </metadata>
  <defs
     id="defs11" />
  <sodipodi:namedview
     pagecolor="#ffffff"
     bordercolor="#666666"
     borderopacity="1"
     objecttolerance="10"
     gridtolerance="10"
     guidetolerance="10"
     inkscape:pageopacity="0"
     inkscape:pageshadow="2"
     inkscape:window-width="1920"
     inkscape:window-height="1031"
     id="namedview9"
     showgrid="false"
     fit-margin-top="0"
     fit-margin-left="0"
     fit-margin-right="0"
     fit-margin-bottom="0"
     inkscape:zoom="0.65186406"
     inkscape:cx="413.27502"
     inkscape:cy="482.99882"
     inkscape:window-x="1366"
     inkscape:window-y="0"
     inkscape:window-maximized="1"
     inkscape:current-layer="g825" />
  <g
     id="icomoon-ignore"
     transform="translate(0,-278.59258)" />
  <g
     aria-label="Hahu Jobs"
     style="font-style:normal;font-weight:normal;font-size:40px;line-height:1.25;font-family:sans-serif;letter-spacing:0px;word-spacing:0px;fill:#000000;fill-opacity:1;stroke:none"
     id="flowRoot820"
     transform="translate(772.33984,503.60214)">
    <path
       d="m -633.67317,-503.5651 q 0.74074,0 1.03703,0.25926 0.2963,0.22222 0.2963,0.74074 v 231 q 0,0.51852 -0.2963,0.92593 -0.29629,0.40741 -1.03703,0.40741 h -44 q -0.51852,0 -0.92593,-0.40741 -0.40741,-0.40741 -0.40741,-0.92593 v -90.66666 q 0,-0.51852 -0.4074,-0.92593 -0.40741,-0.40741 -0.92593,-0.40741 h -44 q -0.51852,0 -0.92593,0.40741 -0.40741,0.40741 -0.40741,0.92593 v 90.66666 q 0,0.51852 -0.4074,0.92593 -0.40741,0.40741 -0.92593,0.40741 h -44 q -0.51852,0 -0.92593,-0.40741 -0.4074,-0.40741 -0.4074,-0.92593 v -231 q 0,-0.51852 0.4074,-0.74074 0.40741,-0.25926 0.92593,-0.25926 h 44 q 0.51852,0 0.92593,0.25926 0.4074,0.22222 0.4074,0.74074 v 91 q 0,0.51852 0.40741,0.92593 0.40741,0.4074 0.92593,0.4074 h 44 q 0.51852,0 0.92593,-0.4074 0.4074,-0.40741 0.4074,-0.92593 v -91 q 0,-0.51852 0.40741,-0.74074 0.40741,-0.25926 0.92593,-0.25926 z"
       style="font-style:normal;font-variant:normal;font-weight:normal;font-stretch:normal;font-size:333.33334351px;font-family:Moderan;-inkscape-font-specification:Moderan;fill:#444f60;fill-opacity:1"
       id="path828"
       inkscape:connector-curvature="0" />
    <path
       d="m -519.51287,-410.23177 q 6.07408,0 11.70371,1.5926 5.62963,1.55555 10.51851,4.44444 4.92593,2.85185 8.92593,6.88889 4.03704,4 6.88889,8.92593 2.88889,4.88889 4.44444,10.51852 1.5926,5.62962 1.5926,11.7037 v 94.62963 q 0,0.55556 -0.40741,0.92593 -0.37037,0.37037 -0.88889,0.37037 h -44.07407 q -0.55556,0 -0.92593,-0.37037 -0.37037,-0.37037 -0.37037,-0.92593 v -81.66667 q 0,-2.14815 -0.81482,-4.03703 -0.81481,-1.88889 -2.22222,-3.2963 -1.40741,-1.40741 -3.29629,-2.22222 -1.88889,-0.81482 -4.03704,-0.81482 h -25.92593 q -2.14815,0 -4.03704,0.81482 -1.88888,0.81481 -3.29629,2.22222 -1.40741,1.40741 -2.22222,3.2963 -0.81482,1.88888 -0.81482,4.03703 v 25.92593 q 0,2.14815 0.81482,4.03704 0.81481,1.88889 2.22222,3.29629 1.40741,1.40741 3.29629,2.22223 1.88889,0.81481 4.03704,0.81481 h 24.62963 q 0.51852,0 0.92593,0.37037 0.40741,0.37037 0.40741,0.92593 v 44.07407 q 0,0.55556 -0.40741,0.92593 -0.40741,0.37037 -0.92593,0.37037 h -37.59259 q -6.07408,0 -11.70371,-1.55556 -5.62963,-1.59259 -10.55555,-4.44444 -4.88889,-2.88889 -8.92593,-6.88889 -4,-4.03704 -6.88889,-8.92593 -2.85185,-4.92592 -4.44444,-10.55555 -1.55556,-5.62963 -1.55556,-11.70371 v -51.85185 q 0,-6.07408 1.55556,-11.7037 1.59259,-5.62963 4.44444,-10.51852 2.88889,-4.92593 6.88889,-8.92593 4.03704,-4.03704 8.92593,-6.88889 4.92592,-2.88889 10.55555,-4.44444 5.62963,-1.5926 11.70371,-1.5926 z"
       style="font-style:normal;font-variant:normal;font-weight:normal;font-stretch:normal;font-size:333.33334351px;font-family:Moderan;-inkscape-font-specification:Moderan;fill:#444f60;fill-opacity:1"
       id="path830"
       inkscape:connector-curvature="0" />
    <path
       d="m -362.61182,-410.23177 q 6.07407,0 11.7037,1.5926 5.66667,1.55555 10.55556,4.44444 4.92592,2.85185 8.92592,6.88889 4.03704,4 6.88889,8.92593 2.88889,4.88889 4.44445,10.51852 1.59259,5.62962 1.59259,11.7037 v 94.66667 q 0,0.51852 -0.40741,0.92592 -0.37037,0.37038 -0.88889,0.37038 h -44.11111 q -0.51852,0 -0.92592,-0.37038 -0.37037,-0.4074 -0.37037,-0.92592 v -81.70371 q 0,-2.14815 -0.81482,-4.03703 -0.81481,-1.88889 -2.22222,-3.2963 -1.40741,-1.40741 -3.2963,-2.22222 -1.88889,-0.81482 -4.03703,-0.81482 h -35.00001 q -0.51851,0 -0.92592,0.40741 -0.37037,0.37037 -0.37037,0.88889 v 90.77778 q 0,0.51852 -0.37037,0.92592 -0.37037,0.37038 -0.92593,0.37038 h -44.07407 q -0.55556,0 -0.92593,-0.37038 -0.37037,-0.4074 -0.37037,-0.92592 v -230.81482 q 0,-0.51852 0.37037,-0.88889 0.37037,-0.40741 0.92593,-0.40741 h 44.07407 q 0.55556,0 0.92593,0.40741 0.37037,0.37037 0.37037,0.88889 v 90.77778 q 0,0.55555 0.37037,0.92592 0.40741,0.37037 0.92592,0.37037 z"
       style="font-style:normal;font-variant:normal;font-weight:normal;font-stretch:normal;font-size:333.33334351px;font-family:Moderan;-inkscape-font-specification:Moderan;fill:#444f60;fill-opacity:1"
       id="path832"
       inkscape:connector-curvature="0" />
    <path
       d="m 13.670596,-503.5651 q 0.518519,0 0.925926,0.40741 0.407407,0.4074 0.407407,0.92592 v 188.00001 q 0,6.07407 -1.592592,11.7037 -1.555556,5.62963 -4.4074077,10.51852 -2.851852,4.88889 -6.8888891,8.92593 -4.0000002,4 -8.8888892,6.85185 -4.888889,2.85185 -10.518519,4.44444 -5.62963,1.55556 -11.703704,1.55556 h -48.000001 q -0.518519,0 -0.925926,-0.40741 -0.407408,-0.40741 -0.407408,-0.92593 v -44 q 0,-0.51852 0.407408,-0.92592 0.407407,-0.40741 0.925926,-0.40741 h 35.000001 q 2.111111,0 4,-0.81481 1.888889,-0.81482 3.296296,-2.22223 1.407408,-1.4074 2.222223,-3.29629 0.814814,-1.88889 0.814814,-4 v -175.00001 q 0,-0.51852 0.407408,-0.92592 0.407407,-0.40741 0.925926,-0.40741 z"
       style="font-style:normal;font-variant:normal;font-weight:normal;font-stretch:normal;font-size:333.33334351px;font-family:Moderan;-inkscape-font-specification:Moderan;fill-opacity:1;fill:#009688"
       id="path836"
       inkscape:connector-curvature="0" />
    <path
       d="m 171.69666,-314.30584 q 0,6.07408 -1.59259,11.70371 -1.55556,5.62963 -4.44445,10.55555 -2.85185,4.88889 -6.88889,8.92593 -4,4 -8.92592,6.88889 -4.88889,2.85185 -10.51852,4.44444 -5.62963,1.55556 -11.70371,1.55556 H 75.770731 q -6.074075,0 -11.703704,-1.55556 -5.62963,-1.59259 -10.555556,-4.44444 -4.888889,-2.88889 -8.925926,-6.88889 -4.000001,-4.03704 -6.88889,-8.92593 -2.851851,-4.92592 -4.444444,-10.55555 -1.555556,-5.62963 -1.555556,-11.70371 v -51.85185 q 0,-6.07408 1.555556,-11.7037 1.592593,-5.62963 4.444444,-10.51852 2.888889,-4.92593 6.88889,-8.92593 4.037037,-4.03704 8.925926,-6.88889 4.925926,-2.88889 10.555556,-4.44444 5.629629,-1.5926 11.703704,-1.5926 h 51.851849 q 6.07408,0 11.70371,1.5926 5.62963,1.55555 10.51852,4.44444 4.92592,2.85185 8.92592,6.88889 4.03704,4 6.88889,8.92593 2.88889,4.88889 4.44445,10.51852 1.59259,5.62962 1.59259,11.7037 z m -46.66667,-38.88889 q 0,-2.14815 -0.81481,-4.03703 -0.81482,-1.88889 -2.22223,-3.2963 -1.4074,-1.40741 -3.29629,-2.22222 -1.88889,-0.81482 -4.03704,-0.81482 H 88.733694 q -2.148148,0 -4.037037,0.81482 -1.888889,0.81481 -3.296297,2.22222 -1.407407,1.40741 -2.222222,3.2963 -0.814815,1.88888 -0.814815,4.03703 v 25.92593 q 0,2.14815 0.814815,4.03704 0.814815,1.88889 2.222222,3.29629 1.407408,1.40741 3.296297,2.22223 1.888889,0.81481 4.037037,0.81481 h 25.925926 q 2.14815,0 4.03704,-0.81481 1.88889,-0.81482 3.29629,-2.22223 1.40741,-1.4074 2.22223,-3.29629 0.81481,-1.88889 0.81481,-4.03704 z"
       style="font-style:normal;font-variant:normal;font-weight:normal;font-stretch:normal;font-size:333.33334351px;font-family:Moderan;-inkscape-font-specification:Moderan;fill-opacity:1;fill:#009688"
       id="path838"
       inkscape:connector-curvature="0" />
    <path
       d="m 189.89395,-270.23176 q -0.55555,0 -0.92592,-0.37037 -0.37037,-0.37037 -0.37037,-0.92593 v -44.11111 q 0,-0.55556 0.37037,-0.88889 0.37037,-0.37037 0.92592,-0.37037 h 81.74075 q 2.14814,0 4.03703,-0.81481 1.88889,-0.85186 3.25926,-2.25926 1.40741,-1.40741 2.18519,-3.2963 0.81481,-1.92593 0.81481,-4.07407 v -25.92593 q 0,-2.14815 -0.81481,-4.03704 -0.77778,-1.88889 -2.18519,-3.25926 -1.37037,-1.40741 -3.25926,-2.18518 -1.88889,-0.81482 -4.03703,-0.81482 h -81.74075 q -0.55555,0 -0.92592,-0.40741 -0.37037,-0.44444 -0.37037,-0.96296 v -137.51852 q 0,-0.55556 0.37037,-0.81482 0.37037,-0.29629 0.92592,-0.29629 h 44.11112 q 0.55555,0 0.88888,0.29629 0.37037,0.25926 0.37037,0.81482 v 90.77778 q 0,0.55555 0.40741,1 0.40741,0.44444 0.92593,0.44444 h 48 q 6.07407,0 11.7037,1.5926 5.62963,1.55555 10.51852,4.4074 4.88889,2.85186 8.88889,6.88889 4.03704,4 6.88889,8.88889 2.85185,4.88889 4.40741,10.51852 1.59259,5.62963 1.59259,11.70371 v 51.88889 q 0,6.07407 -1.59259,11.7037 -1.55556,5.62963 -4.40741,10.55556 -2.85185,4.88888 -6.88889,8.92592 -4,4.03704 -8.88889,6.92593 -4.88889,2.85185 -10.51852,4.44444 -5.62963,1.55556 -11.7037,1.55556 z"
       style="font-style:normal;font-variant:normal;font-weight:normal;font-stretch:normal;font-size:333.33334351px;font-family:Moderan;-inkscape-font-specification:Moderan;fill-opacity:1;fill:#009688"
       id="path840"
       inkscape:connector-curvature="0" />
    <path
       d="m 386.53582,-343.19473 q -3.11111,-5.11111 -4.74074,-10.74074 -1.62963,-5.66667 -1.74074,-11.40741 -0.11112,-5.77777 1.29629,-11.48148 1.40741,-5.7037 4.33334,-10.92592 2.92592,-5.22223 7.03703,-9.37037 4.14815,-4.18519 9.14815,-7.07408 5,-2.92592 10.62963,-4.48148 5.66667,-1.55556 11.66667,-1.55556 h 60.14815 q 1.18518,0 1.18518,1.18519 v 44.07407 q 0,0.55556 -0.33333,1 -0.2963,0.40741 -0.85185,0.40741 h -37.25926 q -2.81482,0 -5.25926,1.40741 -2.40741,1.37037 -3.81482,3.85185 -0.66666,1.22222 -1,2.55556 -0.33333,1.33333 -0.33333,2.7037 0.037,1.33333 0.40741,2.66667 0.40741,1.33333 1.14815,2.51852 l 6.44444,10.48148 q 3.11111,5.11111 4.7037,10.77778 1.62963,5.66666 1.74075,11.44444 0.11111,5.77778 -1.2963,11.48148 -1.40741,5.70371 -4.33333,10.92593 -2.92593,5.22222 -7.07408,9.40741 -4.11111,4.14814 -9.11111,7.07407 -5,2.88889 -10.66667,4.48148 -5.62963,1.55556 -11.62963,1.55556 h -60.18518 q -0.55556,0 -0.92593,-0.37037 -0.37037,-0.37037 -0.37037,-0.92593 v -44.11111 q 0,-0.55556 0.37037,-0.88889 0.37037,-0.37037 0.92593,-0.37037 h 37.25926 q 2.85185,0 5.25926,-1.44444 2.44444,-1.44445 3.81481,-3.88889 0.7037,-1.22223 1.03704,-2.55556 0.33333,-1.33333 0.29629,-2.7037 -0.037,-1.37037 -0.4074,-2.70371 -0.37037,-1.33333 -1.11111,-2.51852 z"
       style="font-style:normal;font-variant:normal;font-weight:normal;font-stretch:normal;font-size:333.33334351px;font-family:Moderan;-inkscape-font-specification:Moderan;fill-opacity:1;fill:#009688"
       id="path842"
       inkscape:connector-curvature="0" />
    <g
       id="g825">
      <path
         id="rect821"
         style="opacity:1;fill:#444f60;fill-opacity:1;fill-rule:nonzero;stroke:none;stroke-width:1.00754583;stroke-opacity:1"
         d="m -161.91271,-381.86899 h 44.8912 c 0.4432,0 0.8,0.3568 0.8,0.8 v 42.95166 c 0,0.4432 -0.3568,0.8 -0.8,0.8 h -44.8912 c -0.4432,0 -0.8,-0.3568 -0.8,-0.8 v -42.95166 c 0,-0.4432 0.3568,-0.8 0.8,-0.8 z m -1.0203,-28.36278 q 0.51852,0 0.88889,0.40741 0.40741,0.37037 0.40741,0.88889 v 94.62963 q 0,6.07408 -1.5926,11.70371 -1.55555,5.62963 -4.44444,10.55555 -2.85185,4.88889 -6.88889,8.92593 -4,4 -8.92593,6.88889 -4.88889,2.85185 -10.51852,4.44444 -5.62963,1.55556 -11.7037,1.55556 h -51.85185 q -6.07408,0 -11.70371,-1.55556 -5.62963,-1.59259 -10.55555,-4.44444 -4.88889,-2.88889 -8.92593,-6.88889 -4,-4.03704 -6.88889,-8.92593 -2.85185,-4.92592 -4.44444,-10.55555 -1.55556,-5.62963 -1.55556,-11.70371 v -94.62963 q 0,-0.51852 0.37037,-0.88889 0.37037,-0.40741 0.92593,-0.40741 h 44.07407 q 0.55556,0 0.92593,0.40741 0.37037,0.37037 0.37037,0.88889 v 81.66667 q 0,2.14815 0.81481,4.03704 0.81482,1.88889 2.22223,3.29629 1.4074,1.40741 3.29629,2.22223 1.88889,0.81481 4.03704,0.81481 h 25.92593 q 2.14814,0 4.03703,-0.81481 1.88889,-0.81482 3.2963,-2.22223 1.40741,-1.4074 2.22222,-3.29629 0.81482,-1.88889 0.81482,-4.03704 v -81.66667 q 0,-0.51852 0.37037,-0.88889 0.37037,-0.40741 0.92592,-0.40741 z" />
    </g>
  </g>
</svg>
