<svg width="18" height="18" viewBox="0 0 18 18" fill="none" xmlns="http://www.w3.org/2000/svg">
<path d="M13.4498 3.54984C13.2521 3.54984 13.0587 3.60849 12.8943 3.71837C12.7298 3.82825 12.6016 3.98443 12.526 4.16715C12.4503 4.34988 12.4305 4.55095 12.4691 4.74493C12.5076 4.93891 12.6029 5.11709 12.7427 5.25694C12.8826 5.3968 13.0608 5.49204 13.2547 5.53062C13.4487 5.56921 13.6498 5.5494 13.8325 5.47372C14.0152 5.39803 14.1714 5.26986 14.2813 5.10541C14.3912 4.94096 14.4498 4.74762 14.4498 4.54984C14.4498 4.28462 14.3445 4.03027 14.1569 3.84273C13.9694 3.65519 13.7151 3.54984 13.4498 3.54984ZM17.2832 5.5665C17.267 4.87509 17.1375 4.19101 16.8998 3.5415C16.6879 2.98578 16.3582 2.48257 15.9332 2.0665C15.5205 1.63936 15.0161 1.31165 14.4582 1.10817C13.8104 0.863305 13.1255 0.730846 12.4332 0.716504C11.5498 0.666504 11.2665 0.666504 8.99984 0.666504C6.73317 0.666504 6.44984 0.666504 5.5665 0.716504C4.87413 0.730846 4.18929 0.863305 3.5415 1.10817C2.98457 1.31371 2.48062 1.64114 2.0665 2.0665C1.63936 2.47915 1.31165 2.98354 1.10817 3.5415C0.863305 4.18929 0.730846 4.87413 0.716504 5.5665C0.666504 6.44984 0.666504 6.73317 0.666504 8.99984C0.666504 11.2665 0.666504 11.5498 0.716504 12.4332C0.730846 13.1255 0.863305 13.8104 1.10817 14.4582C1.31165 15.0161 1.63936 15.5205 2.0665 15.9332C2.48062 16.3585 2.98457 16.686 3.5415 16.8915C4.18929 17.1364 4.87413 17.2688 5.5665 17.2832C6.44984 17.3332 6.73317 17.3332 8.99984 17.3332C11.2665 17.3332 11.5498 17.3332 12.4332 17.2832C13.1255 17.2688 13.8104 17.1364 14.4582 16.8915C15.0161 16.688 15.5205 16.3603 15.9332 15.9332C16.36 15.5187 16.6901 15.015 16.8998 14.4582C17.1375 13.8087 17.267 13.1246 17.2832 12.4332C17.2832 11.5498 17.3332 11.2665 17.3332 8.99984C17.3332 6.73317 17.3332 6.44984 17.2832 5.5665ZM15.7832 12.3332C15.7771 12.8621 15.6813 13.3863 15.4998 13.8832C15.3668 14.2458 15.1531 14.5735 14.8748 14.8415C14.6045 15.1169 14.2775 15.3302 13.9165 15.4665C13.4196 15.648 12.8955 15.7438 12.3665 15.7498C11.5332 15.7915 11.2248 15.7998 9.03317 15.7998C6.8415 15.7998 6.53317 15.7998 5.69984 15.7498C5.15058 15.7601 4.60367 15.6755 4.08317 15.4998C3.73799 15.3566 3.42597 15.1438 3.1665 14.8748C2.88991 14.6071 2.67887 14.2792 2.54984 13.9165C2.34638 13.4125 2.23354 12.8765 2.2165 12.3332C2.2165 11.4998 2.1665 11.1915 2.1665 8.99984C2.1665 6.80817 2.1665 6.49984 2.2165 5.6665C2.22024 5.12572 2.31896 4.58979 2.50817 4.08317C2.65488 3.73143 2.88006 3.41789 3.1665 3.1665C3.41968 2.87998 3.73258 2.65242 4.08317 2.49984C4.59113 2.31654 5.1265 2.22074 5.6665 2.2165C6.49984 2.2165 6.80817 2.1665 8.99984 2.1665C11.1915 2.1665 11.4998 2.1665 12.3332 2.2165C12.8621 2.22257 13.3863 2.31838 13.8832 2.49984C14.2619 2.64038 14.6017 2.86888 14.8748 3.1665C15.1479 3.42249 15.3613 3.73545 15.4998 4.08317C15.685 4.59062 15.7809 5.12632 15.7832 5.6665C15.8248 6.49984 15.8332 6.80817 15.8332 8.99984C15.8332 11.1915 15.8248 11.4998 15.7832 12.3332ZM8.99984 4.72484C8.15468 4.72648 7.32897 4.97861 6.62705 5.44935C5.92513 5.9201 5.37849 6.58833 5.0562 7.36963C4.73391 8.15093 4.65044 9.01023 4.81633 9.83895C4.98222 10.6677 5.39003 11.4286 5.98823 12.0257C6.58643 12.6227 7.34818 13.029 8.17722 13.1933C9.00626 13.3576 9.86539 13.2724 10.6461 12.9486C11.4267 12.6248 12.0939 12.0769 12.5633 11.374C13.0327 10.6712 13.2832 9.845 13.2832 8.99984C13.2843 8.43743 13.1742 7.88034 12.9592 7.36063C12.7442 6.84093 12.4286 6.36885 12.0306 5.97155C11.6325 5.57425 11.1598 5.25957 10.6397 5.04561C10.1195 4.83165 9.56225 4.72264 8.99984 4.72484ZM8.99984 11.7748C8.45099 11.7748 7.91448 11.6121 7.45813 11.3072C7.00178 11.0022 6.6461 10.5688 6.43607 10.0618C6.22604 9.55472 6.17108 8.99676 6.27816 8.45846C6.38523 7.92016 6.64953 7.42571 7.03762 7.03762C7.42571 6.64953 7.92016 6.38523 8.45846 6.27816C8.99676 6.17108 9.55472 6.22604 10.0618 6.43607C10.5688 6.6461 11.0022 7.00178 11.3072 7.45813C11.6121 7.91448 11.7748 8.45099 11.7748 8.99984C11.7748 9.36426 11.7031 9.72511 11.5636 10.0618C11.4241 10.3985 11.2197 10.7044 10.9621 10.9621C10.7044 11.2197 10.3985 11.4241 10.0618 11.5636C9.72511 11.7031 9.36426 11.7748 8.99984 11.7748Z" fill="#444F60"/>
</svg>
