<svg width="14" height="14" viewBox="0 0 14 14" fill="none" xmlns="http://www.w3.org/2000/svg">
<path d="M7.00001 0.599609C7.44183 0.599609 7.80001 0.957782 7.80001 1.39961V2.19961C7.80001 2.64144 7.44183 2.99961 7.00001 2.99961C6.55818 2.99961 6.20001 2.64144 6.20001 2.19961V1.39961C6.20001 0.957782 6.55818 0.599609 7.00001 0.599609Z" fill="#009688"/>
<path d="M10.2 6.99961C10.2 8.76692 8.76732 10.1996 7.00001 10.1996C5.23269 10.1996 3.80001 8.76692 3.80001 6.99961C3.80001 5.2323 5.23269 3.79961 7.00001 3.79961C8.76732 3.79961 10.2 5.2323 10.2 6.99961Z" fill="#009688"/>
<path d="M9.82847 10.9594L10.3942 11.5251C10.7066 11.8375 11.2131 11.8375 11.5255 11.5251C11.8379 11.2126 11.8379 10.7061 11.5255 10.3937L10.9598 9.828C10.6474 9.51558 10.1409 9.51558 9.82847 9.828C9.51606 10.1404 9.51606 10.647 9.82847 10.9594Z" fill="#009688"/>
<path d="M11.5255 2.47408C11.8379 2.7865 11.8379 3.29304 11.5255 3.60545L10.9598 4.17114C10.6474 4.48356 10.1408 4.48356 9.8284 4.17114C9.51598 3.85872 9.51598 3.35219 9.8284 3.03977L10.3941 2.47408C10.7065 2.16166 11.213 2.16166 11.5255 2.47408Z" fill="#009688"/>
<path d="M12.6 7.79961C13.0418 7.79961 13.4 7.44144 13.4 6.99961C13.4 6.55778 13.0418 6.19961 12.6 6.19961H11.8C11.3582 6.19961 11 6.55778 11 6.99961C11 7.44144 11.3582 7.79961 11.8 7.79961H12.6Z" fill="#009688"/>
<path d="M7.00001 10.9996C7.44183 10.9996 7.80001 11.3578 7.80001 11.7996V12.5996C7.80001 13.0414 7.44183 13.3996 7.00001 13.3996C6.55818 13.3996 6.20001 13.0414 6.20001 12.5996V11.7996C6.20001 11.3578 6.55818 10.9996 7.00001 10.9996Z" fill="#009688"/>
<path d="M3.04025 4.17115C3.35267 4.48357 3.85921 4.48357 4.17163 4.17115C4.48404 3.85873 4.48404 3.3522 4.17163 3.03978L3.60594 2.4741C3.29352 2.16168 2.78699 2.16168 2.47457 2.4741C2.16215 2.78652 2.16215 3.29305 2.47457 3.60547L3.04025 4.17115Z" fill="#009688"/>
<path d="M4.17155 10.9594L3.60587 11.525C3.29345 11.8375 2.78691 11.8375 2.47449 11.525C2.16208 11.2126 2.16208 10.7061 2.47449 10.3937L3.04018 9.82799C3.3526 9.51557 3.85913 9.51557 4.17155 9.82799C4.48397 10.1404 4.48397 10.6469 4.17155 10.9594Z" fill="#009688"/>
<path d="M2.20001 7.79961C2.64183 7.79961 3.00001 7.44144 3.00001 6.99961C3.00001 6.55778 2.64183 6.19961 2.20001 6.19961H1.40001C0.958178 6.19961 0.600006 6.55778 0.600006 6.99961C0.600006 7.44144 0.958178 7.79961 1.40001 7.79961H2.20001Z" fill="#009688"/>
</svg>
