<svg width="40" height="40" viewBox="0 0 40 40" fill="none" xmlns="http://www.w3.org/2000/svg">
<path fill-rule="evenodd" clip-rule="evenodd" d="M14.858 13.938H22.286V17.638C23.356 15.51 26.1 13.598 30.222 13.598C38.124 13.598 40 17.834 40 25.606V40H32V27.376C32 22.95 30.93 20.454 28.206 20.454C24.428 20.454 22.858 23.144 22.858 27.374V40H14.858V13.938ZM1.14 39.66H9.14V13.598H1.14V39.66ZM10.286 5.1C10.2863 5.77055 10.1533 6.43447 9.89477 7.05317C9.63624 7.67188 9.2573 8.23303 8.78 8.704C7.8128 9.66525 6.50362 10.2033 5.14 10.2C3.77878 10.1991 2.47262 9.6624 1.504 8.706C1.02842 8.23342 0.650772 7.67165 0.392687 7.05286C0.134603 6.43408 0.00115826 5.77045 0 5.1C0 3.746 0.54 2.45 1.506 1.494C2.47377 0.536317 3.78048 -0.000598421 5.142 5.00529e-07C6.506 5.00529e-07 7.814 0.538 8.78 1.494C9.744 2.45 10.286 3.746 10.286 5.1Z" fill="#009688"/>
</svg>
