<svg width="18" height="22" viewBox="0 0 18 22" fill="none" xmlns="http://www.w3.org/2000/svg">
<path d="M15.0001 3.47991C13.4088 1.88861 11.2505 0.994629 9.00005 0.994629C6.74961 0.994629 4.59135 1.88861 3.00005 3.47991C1.40875 5.07121 0.514771 7.22947 0.514771 9.47991C0.51477 11.7303 1.40875 13.8886 3.00005 15.4799L8.27005 20.7599C8.36302 20.8536 8.47362 20.928 8.59548 20.9788C8.71733 21.0296 8.84804 21.0557 8.98005 21.0557C9.11206 21.0557 9.24277 21.0296 9.36463 20.9788C9.48649 20.928 9.59709 20.8536 9.69005 20.7599L15.0001 15.4299C16.5847 13.8452 17.4749 11.696 17.4749 9.45491C17.4749 7.21386 16.5847 5.06459 15.0001 3.47991ZM13.5701 13.9999L9.00005 18.5899L4.43005 13.9999C3.5272 13.0962 2.91253 11.9452 2.66375 10.6922C2.41497 9.43925 2.54324 8.14066 3.03236 6.96059C3.52147 5.78052 4.34947 4.77196 5.41168 4.06239C6.4739 3.35281 7.72264 2.97409 9.00005 2.97409C10.2775 2.97409 11.5262 3.35281 12.5884 4.06239C13.6506 4.77196 14.4786 5.78052 14.9677 6.96059C15.4569 8.14066 15.5851 9.43925 15.3364 10.6922C15.0876 11.9452 14.4729 13.0962 13.5701 13.9999ZM6.00005 6.40991C5.19277 7.21968 4.73945 8.31648 4.73945 9.45991C4.73945 10.6033 5.19277 11.7001 6.00005 12.5099C6.59981 13.1107 7.36364 13.521 8.1957 13.6893C9.02776 13.8576 9.891 13.7765 10.6771 13.4561C11.4632 13.1356 12.1372 12.5902 12.6145 11.8882C13.0918 11.1861 13.3512 10.3588 13.3601 9.50991C13.3646 8.94311 13.2554 8.38117 13.039 7.8573C12.8225 7.33343 12.5033 6.85827 12.1001 6.45991C11.7037 6.05449 11.2311 5.73145 10.7095 5.50938C10.1878 5.2873 9.62739 5.17059 9.06045 5.16594C8.49351 5.16129 7.93125 5.26881 7.40602 5.4823C6.8808 5.69579 6.40297 6.01104 6.00005 6.40991ZM10.6901 11.0899C10.3111 11.4747 9.81026 11.7158 9.27318 11.7722C8.7361 11.8285 8.19612 11.6966 7.74556 11.3988C7.295 11.1011 6.96185 10.6562 6.80306 10.14C6.64427 9.62384 6.6697 9.06855 6.87501 8.56907C7.08032 8.06958 7.45275 7.65693 7.92864 7.40165C8.40452 7.14637 8.9543 7.06432 9.48399 7.16953C10.0137 7.27474 10.4904 7.56067 10.8326 7.97844C11.1748 8.39621 11.3612 8.91988 11.3601 9.45991C11.3455 10.0772 11.0865 10.6634 10.6401 11.0899H10.6901Z" fill="#009688"/>
</svg>
