<svg width="20" height="20" viewBox="0 0 20 20" fill="none" xmlns="http://www.w3.org/2000/svg">
<path d="M17.41 11C17.1901 11 16.96 10.93 16.74 10.88C16.2949 10.7805 15.8572 10.6501 15.43 10.49C14.9661 10.3212 14.4562 10.33 13.9984 10.5146C13.5405 10.6992 13.1671 11.0466 12.95 11.49L12.73 11.95C11.7589 11.3992 10.8617 10.7271 10.0601 9.95C9.2829 9.14837 8.61085 8.25118 8.06005 7.28L8.52005 7.07C8.96342 6.85292 9.31083 6.47953 9.49544 6.02169C9.68006 5.56385 9.68882 5.05391 9.52005 4.59C9.36124 4.15903 9.23096 3.71808 9.13005 3.27C9.08005 3.05 9.04005 2.82 9.01005 2.6C8.88861 1.89562 8.51968 1.25774 7.96967 0.801239C7.41967 0.344737 6.72475 0.0996088 6.01005 0.11H3.00005C2.5773 0.109446 2.1592 0.198248 1.77317 0.370584C1.38714 0.54292 1.04189 0.794898 0.76005 1.11C0.47237 1.43365 0.258165 1.81575 0.132153 2.23004C0.0061412 2.64432 -0.0286909 3.08098 0.0300499 3.51C0.573637 7.67214 2.47526 11.5387 5.44005 14.51C8.4114 17.4748 12.2779 19.3764 16.4401 19.92C16.5699 19.9299 16.7002 19.9299 16.83 19.92C17.5675 19.9211 18.2794 19.6505 18.83 19.16C19.1452 18.8782 19.3971 18.5329 19.5695 18.1469C19.7418 17.7609 19.8306 17.3428 19.83 16.92V13.92C19.8247 13.229 19.5809 12.5611 19.14 12.0291C18.6991 11.4971 18.088 11.1336 17.41 11ZM17.9 17C17.8997 17.1395 17.8702 17.2775 17.8134 17.4049C17.7565 17.5324 17.6736 17.6465 17.57 17.74C17.4604 17.8399 17.33 17.9141 17.1882 17.9573C17.0464 18.0006 16.8967 18.0117 16.75 17.99C13.0183 17.5026 9.5503 15.802 6.88005 13.15C4.20752 10.4775 2.49208 6.99737 2.00005 3.25C1.97833 3.10333 1.98949 2.95367 2.03272 2.81185C2.07596 2.67003 2.1502 2.5396 2.25005 2.43C2.34467 2.32515 2.46043 2.24154 2.5897 2.18466C2.71897 2.12778 2.85882 2.09892 3.00005 2.1H6.00005C6.23121 2.09435 6.45719 2.16898 6.63951 2.3112C6.82184 2.45341 6.94925 2.65442 7.00005 2.88C7.00005 3.15 7.09005 3.43 7.15005 3.7C7.26563 4.22386 7.41937 4.73857 7.61005 5.24L6.21005 5.9C5.96941 6.01046 5.78241 6.21185 5.69005 6.46C5.59003 6.70346 5.59003 6.97654 5.69005 7.22C7.12925 10.3028 9.60729 12.7808 12.69 14.22C12.9335 14.32 13.2066 14.32 13.45 14.22C13.6982 14.1276 13.8996 13.9406 14.01 13.7L14.64 12.3C15.156 12.4881 15.6838 12.6418 16.22 12.76C16.48 12.82 16.76 12.87 17.0301 12.91C17.2556 12.9608 17.4566 13.0882 17.5989 13.2705C17.7411 13.4529 17.8157 13.6788 17.81 13.91L17.9 17ZM12 0C11.7701 0 11.53 0 11.3 0C11.0348 0.0225434 10.7894 0.14952 10.6178 0.352997C10.4462 0.556474 10.3625 0.819784 10.385 1.085C10.4076 1.35022 10.5346 1.59562 10.738 1.76721C10.9415 1.93881 11.2048 2.02254 11.47 2H12C13.5913 2 15.1175 2.63214 16.2427 3.75736C17.3679 4.88258 18 6.4087 18 8C18 8.18 18 8.35 18 8.53C17.9779 8.79381 18.0612 9.05565 18.2318 9.2581C18.4024 9.46055 18.6463 9.5871 18.91 9.61H18.99C19.2404 9.61102 19.482 9.5181 19.6671 9.34961C19.8523 9.18113 19.9675 8.94932 19.99 8.7C19.99 8.47 19.99 8.23 19.99 8C19.9901 5.88 19.1486 3.84668 17.6504 2.34668C16.1523 0.846674 14.12 0.00265 12 0ZM14 8C14 8.26522 14.1054 8.51957 14.2929 8.70711C14.4805 8.89464 14.7348 9 15 9C15.2653 9 15.5196 8.89464 15.7072 8.70711C15.8947 8.51957 16 8.26522 16 8C16 6.93913 15.5786 5.92172 14.8285 5.17157C14.0783 4.42143 13.0609 4 12 4C11.7348 4 11.4805 4.10536 11.2929 4.29289C11.1054 4.48043 11 4.73478 11 5C11 5.26522 11.1054 5.51957 11.2929 5.70711C11.4805 5.89464 11.7348 6 12 6C12.5305 6 13.0392 6.21071 13.4143 6.58579C13.7893 6.96086 14 7.46957 14 8Z" fill="#009688"/>
</svg>
