<svg width="15" height="14" viewBox="0 0 15 14" fill="none" xmlns="http://www.w3.org/2000/svg">
<path d="M8.5 0C7.94772 0 7.5 0.447715 7.5 1C7.5 1.55228 7.94772 2 8.5 2H11.0858L4.79289 8.29289C4.40237 8.68342 4.40237 9.31658 4.79289 9.70711C5.18342 10.0976 5.81658 10.0976 6.20711 9.70711L12.5 3.41421V6C12.5 6.55228 12.9477 7 13.5 7C14.0523 7 14.5 6.55228 14.5 6V1C14.5 0.447715 14.0523 0 13.5 0H8.5Z" fill="#ECEDEF"/>
<path d="M2.5 2C1.39543 2 0.5 2.89543 0.5 4V12C0.5 13.1046 1.39543 14 2.5 14H10.5C11.6046 14 12.5 13.1046 12.5 12V9C12.5 8.44772 12.0523 8 11.5 8C10.9477 8 10.5 8.44772 10.5 9V12H2.5V4L5.5 4C6.05228 4 6.5 3.55228 6.5 3C6.5 2.44772 6.05228 2 5.5 2H2.5Z" fill="#ECEDEF"/>
</svg>
