<?xml version="1.0" standalone="no"?>
<!DOCTYPE svg PUBLIC "-//W3C//DTD SVG 20010904//EN"
 "http://www.w3.org/TR/2001/REC-SVG-20010904/DTD/svg10.dtd">
<svg version="1.0" xmlns="http://www.w3.org/2000/svg"
 width="512.000000pt" height="512.000000pt" viewBox="0 0 512.000000 512.000000"
 preserveAspectRatio="xMidYMid meet">

<g transform="translate(0.000000,512.000000) scale(0.100000,-0.100000)"
fill="#009688" stroke="none">
<path d="M702 5100 c-109 -29 -187 -74 -272 -160 -151 -150 -208 -340 -165
-545 18 -83 70 -194 119 -251 l35 -42 -52 -34 c-68 -46 -168 -145 -216 -217
-100 -147 -141 -277 -148 -471 -5 -125 -4 -139 16 -178 14 -28 34 -48 61 -62
38 -19 58 -20 646 -20 573 0 606 -1 600 -17 -101 -294 -111 -342 -111 -553 0
-203 29 -350 102 -524 l25 -59 -630 -631 c-691 -692 -668 -666 -694 -815 -24
-142 21 -282 126 -387 105 -105 245 -150 387 -126 149 26 123 3 815 694 l631
630 59 -25 c176 -74 322 -102 529 -102 288 1 513 70 759 233 110 72 282 249
360 369 156 239 221 456 221 743 0 186 -14 271 -71 435 -19 55 -37 108 -40
118 -6 16 27 17 600 17 588 0 608 1 646 20 27 14 47 34 61 62 20 39 21 53 16
178 -7 194 -48 324 -148 471 -50 74 -145 169 -213 215 l-55 36 35 42 c78 91
133 249 134 382 0 79 -31 199 -72 277 -42 81 -164 203 -245 245 -80 42 -198
72 -283 72 -85 0 -203 -30 -283 -72 -81 -42 -203 -164 -245 -245 -41 -78 -72
-198 -72 -277 1 -133 56 -291 134 -382 l35 -42 -52 -34 c-142 -95 -271 -267
-323 -431 -11 -36 -22 -56 -30 -53 -6 2 -38 24 -70 49 -473 354 -1135 354
-1608 0 -32 -25 -64 -47 -70 -49 -8 -3 -19 17 -30 53 -52 164 -180 336 -320
429 l-55 36 35 42 c78 91 133 249 134 382 0 79 -31 199 -72 277 -42 81 -164
203 -245 245 -132 69 -291 88 -431 52z m282 -314 c105 -51 161 -144 161 -266
0 -85 -21 -142 -74 -203 -82 -92 -237 -121 -353 -64 -160 79 -215 278 -118
430 80 126 246 170 384 103z m3420 0 c105 -51 161 -144 161 -266 0 -85 -21
-142 -74 -203 -82 -92 -237 -121 -353 -64 -160 79 -215 278 -118 430 80 126
246 170 384 103z m-3380 -895 c199 -70 321 -216 370 -443 l6 -28 -550 0 -549
0 5 33 c49 282 289 477 569 463 55 -3 113 -13 149 -25z m3420 0 c199 -70 321
-216 370 -443 l6 -28 -550 0 -549 0 5 33 c49 282 289 477 569 463 55 -3 113
-13 149 -25z m-1644 -319 c198 -52 365 -146 501 -281 135 -135 226 -298 281
-501 32 -115 31 -362 -1 -484 -40 -152 -128 -331 -204 -414 -27 -29 -31 -28
-45 12 -37 102 -178 270 -286 342 l-55 36 35 42 c78 91 133 249 134 382 0 79
-31 199 -72 277 -42 81 -164 203 -245 245 -133 70 -286 88 -427 52 -113 -29
-190 -73 -276 -160 -151 -150 -208 -340 -165 -545 18 -83 70 -194 119 -251
l35 -42 -55 -36 c-108 -72 -249 -240 -286 -342 -14 -40 -18 -41 -45 -11 -76
82 -165 261 -204 413 -34 129 -34 359 0 488 109 419 448 730 866 796 93 14
308 4 395 -18z m-106 -606 c105 -51 161 -144 161 -266 0 -85 -21 -142 -74
-203 -82 -92 -237 -121 -353 -64 -160 79 -215 278 -118 430 80 126 246 170
384 103z m40 -895 c166 -58 297 -191 347 -350 23 -76 24 -75 -71 -118 -301
-138 -624 -135 -910 6 -36 18 -68 36 -73 40 -13 13 31 135 71 197 82 126 206
211 357 244 64 14 212 4 279 -19z m-1593 -1154 c-318 -319 -593 -587 -613
-598 -49 -25 -91 -24 -140 3 -69 39 -96 123 -62 191 9 18 277 293 596 613
l579 580 108 -105 107 -106 -575 -578z"/>
<path d="M4122 1980 c-109 -29 -187 -74 -272 -160 -151 -150 -208 -340 -165
-545 18 -83 70 -194 119 -251 l35 -42 -52 -34 c-68 -46 -168 -145 -216 -217
-100 -147 -141 -277 -148 -471 -5 -125 -4 -139 16 -178 14 -28 34 -48 61 -62
38 -20 57 -20 770 -20 713 0 732 0 770 20 27 14 47 34 61 62 20 39 21 53 16
178 -7 194 -48 324 -148 471 -50 74 -145 169 -213 215 l-55 36 35 42 c78 91
133 249 134 382 0 79 -31 199 -72 277 -42 81 -164 203 -245 245 -132 69 -291
88 -431 52z m282 -314 c105 -51 161 -144 161 -266 0 -123 -56 -214 -163 -267
-47 -23 -70 -28 -132 -28 -62 0 -85 5 -132 28 -160 79 -215 278 -118 430 80
126 246 170 384 103z m40 -895 c199 -70 321 -216 370 -443 l6 -28 -550 0 -549
0 5 33 c49 282 289 477 569 463 55 -3 113 -13 149 -25z"/>
</g>
</svg>
