<svg width="26" height="26" viewBox="0 0 26 26" fill="none" xmlns="http://www.w3.org/2000/svg">
<path d="M24.25 13C24.25 19.2132 19.2132 24.25 13 24.25M24.25 13C24.25 6.7868 19.2132 1.75 13 1.75M24.25 13H1.75M13 24.25C6.7868 24.25 1.75 19.2132 1.75 13M13 24.25C15.0711 24.25 16.75 19.2132 16.75 13C16.75 6.7868 15.0711 1.75 13 1.75M13 24.25C10.9289 24.25 9.25 19.2132 9.25 13C9.25 6.7868 10.9289 1.75 13 1.75M1.75 13C1.75 6.7868 6.7868 1.75 13 1.75" stroke="#009688" stroke-width="2" stroke-linecap="round" stroke-linejoin="round"/>
</svg>
