<svg width="17" height="15" viewBox="0 0 17 15" fill="none" xmlns="http://www.w3.org/2000/svg">
<path d="M16.6667 2.16652C16.0403 2.43826 15.3779 2.6179 14.7 2.69985C15.4151 2.27262 15.9511 1.6005 16.2083 0.808183C15.5363 1.20824 14.8006 1.4901 14.0333 1.64152C13.5205 1.08533 12.8375 0.715096 12.0915 0.588892C11.3455 0.462688 10.5788 0.587648 9.91149 0.944174C9.2442 1.3007 8.71411 1.86862 8.40437 2.55888C8.09462 3.24913 8.02274 4.02267 8.2 4.75818C6.84119 4.68945 5.51203 4.33564 4.29888 3.71973C3.08572 3.10382 2.01571 2.23959 1.15833 1.18318C0.857615 1.70832 0.699599 2.30303 0.7 2.90818C0.698934 3.47017 0.836848 4.0237 1.10146 4.51949C1.36608 5.01528 1.74918 5.43794 2.21667 5.74985C1.67331 5.73507 1.14157 5.58926 0.666667 5.32485V5.36652C0.670739 6.15392 0.946662 6.91576 1.44776 7.52315C1.94886 8.13055 2.64438 8.54622 3.41667 8.69985C3.11938 8.79032 2.81073 8.83802 2.5 8.84152C2.28491 8.839 2.07035 8.8195 1.85833 8.78318C2.07826 9.46053 2.50385 10.0525 3.0759 10.4766C3.64794 10.9008 4.33798 11.1361 5.05 11.1498C3.84767 12.0959 2.36324 12.6122 0.833333 12.6165C0.554779 12.6174 0.276446 12.6007 0 12.5665C1.56202 13.5751 3.38234 14.1105 5.24167 14.1082C6.52474 14.1215 7.79761 13.879 8.98593 13.3949C10.1742 12.9108 11.2542 12.1948 12.1627 11.2886C13.0712 10.3824 13.79 9.30434 14.2771 8.11727C14.7643 6.9302 15.01 5.65796 15 4.37485C15 4.23318 15 4.08318 15 3.93318C15.6539 3.44552 16.2179 2.8477 16.6667 2.16652Z" fill="#808080"/>
</svg>
