<svg width="17" height="17" viewBox="0 0 17 17" fill="none" xmlns="http://www.w3.org/2000/svg">
<path d="M15.3915 0.000116526H1.2748C1.11612 -0.00208733 0.958555 0.0269894 0.811109 0.0856863C0.663663 0.144383 0.529224 0.23155 0.415469 0.34221C0.301714 0.452869 0.210873 0.584853 0.148131 0.730625C0.08539 0.876396 0.0519783 1.0331 0.0498047 1.19178V15.4751C0.0519783 15.6338 0.08539 15.7905 0.148131 15.9363C0.210873 16.082 0.301714 16.214 0.415469 16.3247C0.529224 16.4353 0.663663 16.5225 0.811109 16.5812C0.958555 16.6399 1.11612 16.669 1.2748 16.6668H15.3915C15.5502 16.669 15.7077 16.6399 15.8552 16.5812C16.0026 16.5225 16.1371 16.4353 16.2508 16.3247C16.3646 16.214 16.4554 16.082 16.5181 15.9363C16.5809 15.7905 16.6143 15.6338 16.6165 15.4751V1.19178C16.6143 1.0331 16.5809 0.876396 16.5181 0.730625C16.4554 0.584853 16.3646 0.452869 16.2508 0.34221C16.1371 0.23155 16.0026 0.144383 15.8552 0.0856863C15.7077 0.0269894 15.5502 -0.00208733 15.3915 0.000116526ZM5.0748 13.9501H2.5748V6.45012H5.0748V13.9501ZM3.8248 5.40012C3.48002 5.40012 3.14936 5.26315 2.90557 5.01936C2.66177 4.77556 2.5248 4.4449 2.5248 4.10012C2.5248 3.75534 2.66177 3.42468 2.90557 3.18088C3.14936 2.93708 3.48002 2.80012 3.8248 2.80012C4.00788 2.77935 4.19328 2.7975 4.36887 2.85335C4.54445 2.90921 4.70625 3.00152 4.84369 3.12425C4.98112 3.24698 5.09108 3.39735 5.16636 3.56552C5.24165 3.73369 5.28057 3.91586 5.28057 4.10012C5.28057 4.28437 5.24165 4.46655 5.16636 4.63471C5.09108 4.80288 4.98112 4.95326 4.84369 5.07598C4.70625 5.19871 4.54445 5.29102 4.36887 5.34688C4.19328 5.40274 4.00788 5.42088 3.8248 5.40012ZM14.0915 13.9501H11.5915V9.92512C11.5915 8.91678 11.2331 8.25845 10.3248 8.25845C10.0437 8.26051 9.76996 8.34868 9.5405 8.51109C9.31104 8.6735 9.13688 8.90235 9.04147 9.16678C8.97626 9.36265 8.948 9.56893 8.95814 9.77512V13.9418H6.45814C6.45814 13.9418 6.45814 7.12512 6.45814 6.44178H8.95814V7.50012C9.18525 7.10604 9.51556 6.78138 9.9135 6.56112C10.3114 6.34085 10.7619 6.23333 11.2165 6.25012C12.8831 6.25012 14.0915 7.32512 14.0915 9.63345V13.9501Z" fill="#808080"/>
</svg>
