<svg width="18" height="16" viewBox="0 0 18 16" fill="none" xmlns="http://www.w3.org/2000/svg">
<path d="M16.6082 0.622174C16.3975 0.637502 16.1907 0.686925 15.9959 0.768518H15.9933C15.8063 0.842674 14.917 1.21674 13.5652 1.78374L8.72073 3.82402C5.24457 5.28746 1.82748 6.72858 1.82748 6.72858L1.86816 6.71283C1.86816 6.71283 1.63257 6.79027 1.38648 6.95892C1.23444 7.05567 1.10362 7.18225 1.00191 7.33102C0.881164 7.50821 0.784039 7.77924 0.820132 8.05946C0.879195 8.53327 1.18632 8.81742 1.40682 8.97427C1.62994 9.13308 1.84257 9.20724 1.84257 9.20724H1.84782L5.05229 10.2868C5.19601 10.7481 6.02879 13.486 6.22894 14.1166C6.34707 14.4933 6.46191 14.7289 6.60563 14.9087C6.67519 15.0006 6.75657 15.0774 6.85435 15.1391C6.90518 15.1686 6.95938 15.192 7.01579 15.2086L6.98298 15.2008C6.99282 15.2034 7.00069 15.2113 7.00791 15.2139C7.03416 15.2211 7.05188 15.2237 7.08535 15.229C7.59263 15.3825 8.00016 15.0675 8.00016 15.0675L8.02313 15.0492L9.9151 13.3265L13.0861 15.7592L13.1583 15.7901C13.8191 16.0801 14.4885 15.9187 14.8422 15.6339C15.1986 15.3471 15.337 14.9803 15.337 14.9803L15.36 14.9212L17.8104 2.3678C17.88 2.05805 17.8977 1.76799 17.8209 1.48646C17.7418 1.20153 17.559 0.956473 17.3084 0.799362C17.098 0.671468 16.8541 0.609737 16.6082 0.622174ZM16.5419 1.96749C16.5393 2.00883 16.5472 2.00424 16.5288 2.08364V2.09086L14.1013 14.5137C14.0908 14.5314 14.0731 14.5701 14.0245 14.6088C13.9734 14.6495 13.9327 14.6751 13.7194 14.5905L9.84095 11.617L7.49813 13.7524L7.99032 10.609L14.3271 4.70274C14.5883 4.45992 14.501 4.40874 14.501 4.40874C14.5194 4.1108 14.1066 4.32146 14.1066 4.32146L6.11607 9.27155L6.11344 9.25842L2.28357 7.96889V7.96627L2.27373 7.9643C2.28044 7.96207 2.28701 7.95944 2.29341 7.95642L2.31441 7.94592L2.33476 7.93871C2.33476 7.93871 5.75448 6.49758 9.23063 5.03414C10.971 4.30111 12.7245 3.56283 14.0731 2.99321C14.8729 2.65655 15.6735 2.32186 16.475 1.98914C16.5288 1.96814 16.5032 1.96814 16.5419 1.96814V1.96749Z" fill="black"/>
</svg>
