<svg width="18" height="14" viewBox="0 0 18 14" fill="none" xmlns="http://www.w3.org/2000/svg">
<path d="M17.3332 1.83351C16.7068 2.10525 16.0444 2.28489 15.3665 2.36684C16.0816 1.93961 16.6176 1.26749 16.8748 0.475175C16.2028 0.875227 15.4671 1.15709 14.6998 1.30851C14.187 0.752318 13.504 0.382088 12.758 0.255884C12.012 0.12968 11.2453 0.25464 10.578 0.611166C9.9107 0.967692 9.38061 1.53562 9.07087 2.22587C8.76113 2.91613 8.68925 3.68967 8.8665 4.42517C7.50769 4.35645 6.17854 4.00264 4.96538 3.38673C3.75223 2.77082 2.68221 1.90659 1.82484 0.850175C1.52412 1.37531 1.3661 1.97003 1.3665 2.57517C1.36544 3.13716 1.50335 3.69069 1.76797 4.18648C2.03258 4.68227 2.41569 5.10493 2.88317 5.41684C2.33982 5.40206 1.80808 5.25626 1.33317 4.99184V5.03351C1.33724 5.82092 1.61317 6.58275 2.11427 7.19015C2.61537 7.79754 3.31088 8.21321 4.08317 8.36684C3.78588 8.45731 3.47723 8.50501 3.1665 8.50851C2.95141 8.506 2.73686 8.48649 2.52484 8.45017C2.74476 9.12752 3.17036 9.71946 3.7424 10.1436C4.31444 10.5678 5.00448 10.8031 5.7165 10.8168C4.51417 11.7629 3.02974 12.2792 1.49984 12.2835C1.22128 12.2844 0.94295 12.2677 0.666504 12.2335C2.22853 13.2421 4.04885 13.7774 5.90817 13.7752C7.19125 13.7885 8.46412 13.546 9.65243 13.0619C10.8408 12.5778 11.9207 11.8617 12.8292 10.9556C13.7377 10.0494 14.4565 8.97133 14.9436 7.78426C15.4308 6.59719 15.6765 5.32495 15.6665 4.04184C15.6665 3.90017 15.6665 3.75017 15.6665 3.60017C16.3204 3.11252 16.8844 2.5147 17.3332 1.83351V1.83351Z" fill="#444F60"/>
</svg>
