<svg width="19" height="16" viewBox="0 0 19 16" fill="none" xmlns="http://www.w3.org/2000/svg">
<path fill-rule="evenodd" clip-rule="evenodd" d="M18.8179 2.14561C18.1353 2.44807 17.4029 2.65319 16.6334 2.74477C17.4191 2.27425 18.0206 1.52795 18.3056 0.641402C17.5686 1.07713 16.7551 1.39352 15.8882 1.56504C15.1941 0.824524 14.2067 0.363281 13.1116 0.363281C11.0105 0.363281 9.30698 2.06683 9.30698 4.16671C9.30698 4.46452 9.34058 4.7554 9.40549 5.03355C6.2441 4.87477 3.44079 3.36013 1.56458 1.05858C1.23661 1.61949 1.05004 2.27307 1.05004 2.97074C1.05004 4.29071 1.72219 5.45537 2.74201 6.13677C2.11852 6.11592 1.53213 5.9444 1.01876 5.65931V5.70683C1.01876 7.54943 2.33061 9.08725 4.07007 9.43725C3.75137 9.52301 3.41531 9.57052 3.06764 9.57052C2.82198 9.57052 2.5844 9.54619 2.35146 9.49983C2.83586 11.0122 4.24043 12.1119 5.90458 12.1421C4.60316 13.1619 2.96219 13.768 1.17985 13.768C0.872764 13.768 0.570279 13.7494 0.272461 13.7158C1.95631 14.7971 3.95537 15.4275 6.10392 15.4275C13.1023 15.4275 16.9278 9.6308 16.9278 4.60361L16.915 4.1111C17.6625 3.57798 18.3091 2.90816 18.8179 2.14561Z" fill="#BBC3CF"/>
</svg>
