<svg width="120" height="90" viewBox="0 0 120 90" fill="none" xmlns="http://www.w3.org/2000/svg">
<path d="M0 75V15C0 11.0218 1.58035 7.20644 4.3934 4.3934C7.20644 1.58035 11.0218 0 15 0H105C108.978 0 112.794 1.58035 115.607 4.3934C118.42 7.20644 120 11.0218 120 15V75C120 78.9782 118.42 82.7936 115.607 85.6066C112.794 88.4196 108.978 90 105 90H15C11.0218 90 7.20644 88.4196 4.3934 85.6066C1.58035 82.7936 0 78.9782 0 75ZM50.925 23.1975C50.3643 22.7983 49.7045 22.5611 49.0179 22.5119C48.3313 22.4627 47.6445 22.6035 47.0326 22.9187C46.4207 23.234 45.9073 23.7115 45.5488 24.2991C45.1903 24.8867 45.0004 25.5617 45 26.25V63.75C45.0004 64.4383 45.1903 65.1133 45.5488 65.7009C45.9073 66.2885 46.4207 66.766 47.0326 67.0813C47.6445 67.3965 48.3313 67.5373 49.0179 67.4881C49.7045 67.4389 50.3643 67.2017 50.925 66.8025L77.175 48.0525C77.6611 47.7056 78.0574 47.2476 78.3307 46.7167C78.6041 46.1857 78.7468 45.5972 78.7468 45C78.7468 44.4028 78.6041 43.8142 78.3307 43.2833C78.0574 42.7524 77.6611 42.2944 77.175 41.9475L50.925 23.1975Z" fill="#C12727"/>
</svg>
