<?xml version="1.0" standalone="no"?>
<!DOCTYPE svg PUBLIC "-//W3C//DTD SVG 20010904//EN"
 "http://www.w3.org/TR/2001/REC-SVG-20010904/DTD/svg10.dtd">
<svg version="1.0" xmlns="http://www.w3.org/2000/svg"
 width="324.000000pt" height="160.000000pt" viewBox="0 0 324.000000 160.000000"
 preserveAspectRatio="xMidYMid meet">

<g transform="translate(0.000000,160.000000) scale(0.100000,-0.100000)"
fill="#000000" stroke="none">
<path d="M344 1048 c4 -18 18 -44 31 -58 24 -23 31 -24 181 -28 l156 -4 -172
-173 c-170 -170 -173 -173 -166 -208 13 -70 19 -72 292 -75 l244 -3 0 29 c0
72 -51 91 -240 92 l-124 0 172 173 c182 183 180 180 150 243 -19 40 -48 44
-295 44 l-235 0 6 -32z"/>
<path d="M1085 1063 c-67 -24 -109 -55 -143 -106 -63 -93 -71 -196 -21 -295
32 -65 67 -100 133 -134 57 -30 173 -31 237 -2 136 63 203 225 150 366 -54
143 -217 221 -356 171z m174 -123 c112 -57 116 -231 6 -295 -87 -51 -196 -22
-242 64 -29 55 -29 102 -2 158 42 88 147 120 238 73z"/>
<path d="M1686 1064 c-71 -23 -159 -112 -180 -184 -34 -116 -12 -206 73 -291
46 -46 70 -61 116 -74 128 -38 264 17 332 132 34 59 43 167 19 240 -47 142
-214 224 -360 177z m192 -133 c134 -95 67 -311 -96 -311 -61 0 -99 17 -136 60
-70 83 -48 201 48 262 43 27 139 21 184 -11z"/>
<path d="M2100 789 l0 -291 32 6 c68 13 72 27 78 222 l5 176 33 29 c46 41 108
41 154 0 l33 -29 5 -169 c5 -180 12 -207 56 -223 55 -21 54 -23 54 153 1 195
9 243 45 274 47 41 148 24 176 -30 8 -13 14 -85 17 -185 4 -149 7 -166 26
-188 11 -13 36 -27 54 -30 l33 -7 -3 209 c-3 209 -3 209 -31 257 -69 117 -212
149 -326 73 l-48 -32 -32 27 c-62 51 -158 62 -231 25 -27 -13 -35 -13 -53 -2
-12 8 -34 16 -49 20 l-28 6 0 -291z"/>
</g>
</svg>
